<svg xmlns="http://www.w3.org/2000/svg" viewBox="-0.5 -0.5 16 16" fill="#000000" id="Alert-Octagon--Streamline-Tabler-Filled.svg" height="16" width="16"><desc>Alert Octagon Streamline Icon: https://streamlinehq.com</desc><path d="M9.310625 0.625a2.5 2.5 0 0 1 1.665 0.635l0.10312500000000001 0.0975 2.5625 2.5625a2.5 2.5 0 0 1 0.73 1.628125l0.00375 0.141875v3.62125a2.5 2.5 0 0 1 -0.635 1.665l-0.0975 0.10312500000000001 -2.5625 2.5625a2.5 2.5 0 0 1 -1.626875 0.73l-0.141875 0.00375H5.689375a2.499375 2.499375 0 0 1 -1.665 -0.6356249999999999l-0.10312500000000001 -0.0975 -2.5625 -2.5625a2.5 2.5 0 0 1 -0.73 -1.6275L0.625 9.310625V5.689375a2.5 2.5 0 0 1 0.635 -1.665l0.0975 -0.10312500000000001 2.5625 -2.5625a2.5 2.5 0 0 1 1.628125 -0.73L5.6899999999999995 0.625h3.620625zM7.50625 9.375l-0.079375 0.004375a0.625 0.625 0 0 0 0 1.24125L7.5 10.625l0.079375 -0.004375a0.625 0.625 0 0 0 0 -1.24125L7.50625 9.375zM7.5 4.375a0.625 0.625 0 0 0 -0.620625 0.551875L6.875 5v2.5l0.004375 0.07312500000000001a0.625 0.625 0 0 0 1.24125 0L8.125 7.5V5l-0.004375 -0.07312500000000001A0.625 0.625 0 0 0 7.5 4.375z" stroke-width="1"></path></svg>